<?xml version="1.0" standalone="no"?>
<!DOCTYPE svg PUBLIC "-//W3C//DTD SVG 20010904//EN"
 "http://www.w3.org/TR/2001/REC-SVG-20010904/DTD/svg10.dtd">
<svg version="1.0" xmlns="http://www.w3.org/2000/svg"
 width="816.000000pt" height="816.000000pt" viewBox="0 0 816.000000 816.000000"
 preserveAspectRatio="xMidYMid meet">
<metadata>
Created by potrace 1.14, written by Peter Selinger 2001-2017
</metadata>
<g transform="translate(0.000000,816.000000) scale(0.100000,-0.100000)"
fill="#000000" stroke="none">
<path d="M5748 7097 c-13 -5 -34 -10 -48 -12 -14 -2 -43 -11 -65 -21 -22 -10
-46 -19 -53 -20 -7 -1 -23 -9 -35 -17 -12 -8 -26 -14 -31 -15 -5 0 -13 -7 -18
-16 -5 -9 -14 -16 -19 -16 -6 0 -16 -6 -24 -12 -7 -7 -23 -22 -36 -33 -13 -11
-41 -35 -62 -52 -22 -18 -36 -33 -33 -33 3 0 -5 -10 -17 -23 -35 -37 -57 -67
-50 -67 3 0 -2 -9 -12 -20 -10 -11 -13 -20 -7 -20 7 0 3 -9 -8 -20 -11 -11
-20 -27 -20 -35 0 -8 -4 -15 -10 -15 -5 0 -10 -9 -10 -20 0 -11 -5 -20 -11
-20 -5 0 -7 -5 -4 -10 4 -6 1 -17 -5 -25 -7 -8 -9 -15 -5 -15 4 0 3 -6 -3 -12
-11 -14 -12 -18 -12 -48 0 -11 -9 -29 -20 -40 -11 -11 -20 -22 -20 -25 0 -3
-2 -5 -5 -5 -3 0 -18 -6 -33 -13 -25 -13 -69 -22 -167 -33 -22 -2 -55 -6 -74
-8 -50 -7 -121 -7 -1243 -7 l-1028 1 0 108 c0 116 -14 156 -62 184 -34 19
-964 19 -1000 0 -44 -24 -58 -62 -58 -155 0 -46 -3 -98 -6 -113 -5 -27 -9 -29
-43 -26 -21 2 -106 -1 -189 -7 -125 -8 -167 -15 -248 -42 -259 -86 -441 -295
-501 -573 -17 -76 -18 -216 -18 -2181 0 -1932 1 -2106 17 -2172 37 -159 99
-273 209 -382 107 -108 219 -170 377 -209 61 -15 310 -17 2962 -20 1990 -2
2930 0 3007 8 233 22 407 108 538 267 111 134 160 267 176 468 6 83 9 851 7
2145 -4 1875 -5 2020 -21 2087 -55 228 -177 394 -372 509 -87 50 -264 99 -435
118 -45 5 -120 19 -172 32 -18 4 -28 13 -28 25 0 11 -5 18 -11 16 -6 -1 -15 5
-19 13 -15 28 -40 122 -34 131 3 5 1 9 -4 9 -5 0 -15 19 -22 43 -8 23 -20 49
-27 58 -7 8 -13 19 -13 23 0 4 -6 13 -12 20 -7 8 -20 24 -28 37 -8 13 -41 50
-72 82 -32 32 -53 55 -48 52 6 -3 10 -4 10 -1 0 3 -15 12 -34 21 -18 9 -44 26
-57 38 -13 12 -26 22 -29 22 -3 0 -17 9 -32 19 -15 9 -33 19 -40 20 -7 1 -20
6 -28 11 -8 5 -21 10 -28 11 -8 2 -21 6 -30 10 -9 4 -24 8 -32 9 -8 1 -33 6
-55 13 -47 13 -273 12 -307 -1z m214 -206 c-14 -9 53 -23 116 -24 18 0 28 -3
22 -7 -5 -3 15 -18 46 -33 30 -15 60 -24 66 -21 7 4 8 2 4 -4 -8 -13 28 -35
39 -24 5 4 5 2 2 -4 -3 -6 12 -28 34 -50 22 -21 49 -54 60 -72 12 -17 25 -30
30 -27 5 4 6 -2 2 -11 -4 -12 -3 -15 5 -10 8 5 10 1 5 -10 -4 -12 -3 -15 5
-10 8 5 10 1 5 -10 -5 -13 -3 -15 7 -9 9 5 11 4 6 -4 -10 -16 3 -53 16 -45 7
4 8 2 4 -4 -3 -6 -3 -29 0 -52 5 -28 10 -37 15 -28 7 10 9 10 9 0 0 -7 -6 -15
-14 -18 -8 -3 -12 -13 -9 -25 5 -17 -5 -24 -29 -20 -4 0 -15 -16 -25 -36 -9
-20 -19 -31 -21 -24 -2 7 -7 9 -11 4 -3 -5 -26 -24 -51 -43 -25 -19 -47 -37
-50 -41 -3 -4 -19 -10 -37 -13 -22 -5 -35 -16 -43 -36 -22 -52 -97 -109 -190
-143 -8 -3 3 -6 26 -6 23 -1 69 -4 103 -7 l62 -7 -43 -28 c-47 -32 -101 -50
-193 -68 -53 -9 -69 -8 -130 10 -39 11 -82 21 -97 23 -15 1 -46 16 -69 32
l-43 29 125 11 c68 6 118 12 110 13 -8 0 -38 13 -67 27 -54 26 -106 76 -126
120 -7 14 -23 26 -42 30 -17 3 -33 9 -36 13 -3 4 -25 22 -50 41 -25 19 -47 39
-49 44 -2 4 -7 3 -11 -4 -5 -8 -12 -2 -21 18 -7 17 -23 33 -35 36 -20 5 -21
12 -20 80 0 41 4 72 8 70 10 -6 20 34 12 47 -5 8 -3 9 6 4 10 -6 12 -4 7 9 -5
11 -3 15 5 10 8 -5 9 -1 4 12 -4 10 -4 15 0 11 10 -9 65 74 57 86 -3 6 -2 7 4
4 10 -6 69 48 75 68 2 6 7 9 12 7 13 -4 36 19 29 31 -3 6 -1 7 5 3 13 -8 123
44 116 56 -3 4 1 6 8 3 7 -3 42 1 78 8 36 8 58 16 50 20 -8 3 17 6 55 6 42 0
65 -3 57 -8z m-1737 -2186 c140 -20 234 -48 351 -105 380 -184 622 -553 641
-976 11 -257 -49 -472 -193 -690 -239 -362 -690 -559 -1120 -489 -469 76 -826
412 -941 887 -25 103 -25 383 0 486 57 235 159 415 330 579 143 137 304 229
488 278 170 45 287 53 444 30z"/>
</g>
</svg>
